<svg width="700" height="535" viewBox="0 0 700 535" fill="none" xmlns="http://www.w3.org/2000/svg">
<g filter="url(#filter0_dd_420_4451)">
<rect x="12" y="10" width="676" height="510.711" rx="1.94253" fill="white" shape-rendering="crispEdges"/>
<path d="M12.2428 11.9425C12.2428 11.0038 13.0038 10.2428 13.9425 10.2428H686.057C686.996 10.2428 687.757 11.0038 687.757 11.9425V35.4599H12.2428V11.9425Z" fill="#F5F5F5"/>
<rect x="19.77" y="18.835" width="24.7672" height="8.03208" rx="1.58582" fill="#E2E4E6"/>
<rect x="77.0747" y="18.835" width="69.931" height="8.03208" rx="1.58582" fill="#E2E4E6"/>
<rect x="231.991" y="18.835" width="48.5632" height="8.03208" rx="1.58582" fill="#E2E4E6"/>
<rect x="456.111" y="18.835" width="55.3621" height="8.03208" rx="1.58582" fill="#E2E4E6"/>
<path d="M12.2428 11.9425C12.2428 11.0038 13.0038 10.2428 13.9425 10.2428H686.057C686.996 10.2428 687.757 11.0038 687.757 11.9425V35.4599H12.2428V11.9425Z" stroke="#ECECEC" stroke-width="0.485632"/>
<rect width="676" height="0.485632" transform="translate(12 35.7031)" fill="#EBEBEB"/>
<rect x="19.77" y="48.4414" width="34.9655" height="7.77011" rx="1.4569" fill="#F3F3F8"/>
<rect x="77.0747" y="48.4414" width="118.98" height="7.77011" rx="1.4569" fill="#F3F3F8"/>
<rect x="231.991" y="48.4414" width="41.2787" height="7.77011" rx="1.4569" fill="#F3F3F8"/>
<rect x="456.111" y="48.4414" width="82.5575" height="7.77011" rx="1.4569" fill="#F3F3F8"/>
<rect width="676" height="0.485632" transform="translate(12 68.4658)" fill="#EBEBEB"/>
<rect x="19.77" y="81.2041" width="34.9655" height="7.77011" rx="1.4569" fill="#F3F3F8"/>
<rect x="77.0747" y="81.2041" width="118.98" height="7.77011" rx="1.4569" fill="#F3F3F8"/>
<rect x="231.991" y="81.2041" width="41.2787" height="7.77011" rx="1.4569" fill="#F3F3F8"/>
<rect x="456.111" y="81.2041" width="82.5575" height="7.77011" rx="1.4569" fill="#F3F3F8"/>
<rect width="676" height="0.485632" transform="translate(12 101.228)" fill="#EBEBEB"/>
<rect x="19.77" y="113.966" width="34.9655" height="7.77011" rx="1.4569" fill="#F3F3F8"/>
<rect x="77.0747" y="113.966" width="118.98" height="7.77011" rx="1.4569" fill="#F3F3F8"/>
<rect x="231.991" y="113.966" width="41.2787" height="7.77011" rx="1.4569" fill="#F3F3F8"/>
<rect x="456.111" y="113.966" width="82.5575" height="7.77011" rx="1.4569" fill="#F3F3F8"/>
<rect width="676" height="0.485632" transform="translate(12 133.99)" fill="#EBEBEB"/>
<rect x="19.77" y="146.729" width="34.9655" height="7.77011" rx="1.4569" fill="#F3F3F8"/>
<rect x="77.0747" y="146.729" width="118.98" height="7.77011" rx="1.4569" fill="#F3F3F8"/>
<rect x="231.991" y="146.729" width="41.2787" height="7.77011" rx="1.4569" fill="#F3F3F8"/>
<rect x="456.111" y="146.729" width="82.5575" height="7.77011" rx="1.4569" fill="#F3F3F8"/>
<rect width="676" height="0.485632" transform="translate(12 166.752)" fill="#EBEBEB"/>
<rect x="19.77" y="179.49" width="34.9655" height="7.77011" rx="1.4569" fill="#F3F3F8"/>
<rect x="77.0747" y="179.49" width="118.98" height="7.77011" rx="1.4569" fill="#F3F3F8"/>
<rect x="231.991" y="179.49" width="41.2787" height="7.77011" rx="1.4569" fill="#F3F3F8"/>
<rect x="456.111" y="179.49" width="82.5575" height="7.77011" rx="1.4569" fill="#F3F3F8"/>
<rect width="676" height="0.485632" transform="translate(12 199.515)" fill="#EBEBEB"/>
<rect x="19.77" y="212.253" width="34.9655" height="7.77011" rx="1.4569" fill="#F3F3F8"/>
<rect x="77.0747" y="212.253" width="118.98" height="7.77011" rx="1.4569" fill="#F3F3F8"/>
<rect x="231.991" y="212.253" width="41.2787" height="7.77011" rx="1.4569" fill="#F3F3F8"/>
<rect x="456.111" y="212.253" width="82.5575" height="7.77011" rx="1.4569" fill="#F3F3F8"/>
<rect width="676" height="0.485632" transform="translate(12 232.276)" fill="#EBEBEB"/>
<rect x="19.77" y="245.015" width="34.9655" height="7.77011" rx="1.4569" fill="#F3F3F8"/>
<rect x="77.0747" y="245.015" width="118.98" height="7.77011" rx="1.4569" fill="#F3F3F8"/>
<rect x="231.991" y="245.015" width="41.2787" height="7.77011" rx="1.4569" fill="#F3F3F8"/>
<rect x="456.111" y="245.015" width="82.5575" height="7.77011" rx="1.4569" fill="#F3F3F8"/>
<rect width="676" height="0.485632" transform="translate(12 265.039)" fill="#EBEBEB"/>
<rect x="19.77" y="277.777" width="34.9655" height="7.77011" rx="1.4569" fill="#F3F3F8"/>
<rect x="77.0747" y="277.777" width="118.98" height="7.77011" rx="1.4569" fill="#F3F3F8"/>
<rect x="231.991" y="277.777" width="41.2787" height="7.77011" rx="1.4569" fill="#F3F3F8"/>
<rect x="456.111" y="277.777" width="82.5575" height="7.77011" rx="1.4569" fill="#F3F3F8"/>
<rect width="676" height="0.485632" transform="translate(12 297.801)" fill="#EBEBEB"/>
<rect x="19.77" y="310.54" width="34.9655" height="7.77011" rx="1.4569" fill="#F3F3F8"/>
<rect x="77.0747" y="310.54" width="118.98" height="7.77011" rx="1.4569" fill="#F3F3F8"/>
<rect x="231.991" y="310.54" width="41.2787" height="7.77011" rx="1.4569" fill="#F3F3F8"/>
<rect x="456.111" y="310.54" width="82.5575" height="7.77011" rx="1.4569" fill="#F3F3F8"/>
<rect width="676" height="0.485632" transform="translate(12 330.563)" fill="#EBEBEB"/>
<rect x="19.77" y="343.302" width="34.9655" height="7.77011" rx="1.4569" fill="#F3F3F8"/>
<rect x="77.0747" y="343.302" width="118.98" height="7.77011" rx="1.4569" fill="#F3F3F8"/>
<rect x="231.991" y="343.302" width="41.2787" height="7.77011" rx="1.4569" fill="#F3F3F8"/>
<rect x="456.111" y="343.302" width="82.5575" height="7.77011" rx="1.4569" fill="#F3F3F8"/>
<rect width="676" height="0.485632" transform="translate(12 363.325)" fill="#EBEBEB"/>
<rect x="19.77" y="376.064" width="34.9655" height="7.77011" rx="1.4569" fill="#F3F3F8"/>
<rect x="77.0747" y="376.064" width="118.98" height="7.77011" rx="1.4569" fill="#F3F3F8"/>
<rect x="231.991" y="376.064" width="41.2787" height="7.77011" rx="1.4569" fill="#F3F3F8"/>
<rect x="456.111" y="376.064" width="82.5575" height="7.77011" rx="1.4569" fill="#F3F3F8"/>
<rect width="676" height="0.485632" transform="translate(12 396.088)" fill="#EBEBEB"/>
<rect x="19.77" y="408.826" width="34.9655" height="7.77011" rx="1.4569" fill="#F3F3F8"/>
<rect x="77.0747" y="408.826" width="118.98" height="7.77011" rx="1.4569" fill="#F3F3F8"/>
<rect x="231.991" y="408.826" width="41.2787" height="7.77011" rx="1.4569" fill="#F3F3F8"/>
<rect x="456.111" y="408.826" width="82.5575" height="7.77011" rx="1.4569" fill="#F3F3F8"/>
<rect width="676" height="0.485632" transform="translate(12 428.85)" fill="#EBEBEB"/>
<rect x="19.77" y="441.589" width="34.9655" height="7.77011" rx="1.4569" fill="#F3F3F8"/>
<rect x="77.0747" y="441.589" width="118.98" height="7.77011" rx="1.4569" fill="#F3F3F8"/>
<rect x="231.991" y="441.589" width="41.2787" height="7.77011" rx="1.4569" fill="#F3F3F8"/>
<rect x="456.111" y="441.589" width="82.5575" height="7.77011" rx="1.4569" fill="#F3F3F8"/>
<rect width="676" height="0.485632" transform="translate(12 461.612)" fill="#EBEBEB"/>
<rect x="19.77" y="474.351" width="34.9655" height="7.77011" rx="1.4569" fill="#F3F3F8"/>
<rect x="77.0747" y="474.351" width="118.98" height="7.77011" rx="1.4569" fill="#F3F3F8"/>
<rect x="231.991" y="474.351" width="41.2787" height="7.77011" rx="1.4569" fill="#F3F3F8"/>
<rect x="456.111" y="474.351" width="82.5575" height="7.77011" rx="1.4569" fill="#F3F3F8"/>
<rect width="676" height="0.485632" transform="translate(12 494.375)" fill="#EBEBEB"/>
<rect x="19.77" y="507.113" width="34.9655" height="7.77011" rx="1.4569" fill="#F3F3F8"/>
<rect x="77.0747" y="507.113" width="118.98" height="7.77011" rx="1.4569" fill="#F3F3F8"/>
<rect x="231.991" y="507.113" width="41.2787" height="7.77011" rx="1.4569" fill="#F3F3F8"/>
<rect x="456.111" y="507.113" width="82.5575" height="7.77011" rx="1.4569" fill="#F3F3F8"/>
<rect x="12.2428" y="10.2428" width="675.514" height="510.225" rx="1.69971" stroke="#ECECEC" stroke-width="0.485632" shape-rendering="crispEdges"/>
</g>
<defs>
<filter id="filter0_dd_420_4451" x="0.344828" y="0.287356" width="699.31" height="534.021" filterUnits="userSpaceOnUse" color-interpolation-filters="sRGB">
<feFlood flood-opacity="0" result="BackgroundImageFix"/>
<feColorMatrix in="SourceAlpha" type="matrix" values="0 0 0 0 0 0 0 0 0 0 0 0 0 0 0 0 0 0 127 0" result="hardAlpha"/>
<feOffset dy="1.94253"/>
<feGaussianBlur stdDeviation="2.42816"/>
<feComposite in2="hardAlpha" operator="out"/>
<feColorMatrix type="matrix" values="0 0 0 0 0 0 0 0 0 0 0 0 0 0 0 0 0 0 0.11 0"/>
<feBlend mode="normal" in2="BackgroundImageFix" result="effect1_dropShadow_420_4451"/>
<feColorMatrix in="SourceAlpha" type="matrix" values="0 0 0 0 0 0 0 0 0 0 0 0 0 0 0 0 0 0 127 0" result="hardAlpha"/>
<feOffset dy="1.94253"/>
<feGaussianBlur stdDeviation="5.82759"/>
<feComposite in2="hardAlpha" operator="out"/>
<feColorMatrix type="matrix" values="0 0 0 0 0 0 0 0 0 0 0 0 0 0 0 0 0 0 0.05 0"/>
<feBlend mode="normal" in2="effect1_dropShadow_420_4451" result="effect2_dropShadow_420_4451"/>
<feBlend mode="normal" in="SourceGraphic" in2="effect2_dropShadow_420_4451" result="shape"/>
</filter>
</defs>
</svg>
