<svg width="317" height="68" viewBox="0 0 317 68" fill="none" xmlns="http://www.w3.org/2000/svg">
<rect x="24.0156" y="24.0156" width="43.2273" height="19.2121" rx="9.60606" fill="#F57500"/>
<rect x="9.60645" y="48.0312" width="43.2273" height="19.2121" rx="9.60606" fill="#F57500"/>
<path d="M33.6212 0H0V33.6212C0 38.9265 4.30078 43.2273 9.60606 43.2273C14.9113 43.2273 19.2121 38.9265 19.2121 33.6212V19.2121H33.6212C38.9265 19.2121 43.2273 14.9113 43.2273 9.60606C43.2273 4.30078 38.9265 0 33.6212 0Z" fill="#001878"/>
<path d="M92.3554 52.804V38.5272H104.429C112.171 38.5272 117.097 33.9846 117.097 26.684C117.097 19.6538 112.604 14.949 104.537 14.949H86.4541V52.804H92.3554ZM92.3554 20.1405H103.725C108.381 20.1405 110.98 22.5741 110.98 26.8463C110.98 30.9022 108.381 33.4979 103.725 33.4979H92.3554V20.1405Z" fill="#001878"/>
<path d="M128.231 52.804V14.4082H122.546V52.804H128.231Z" fill="#001878"/>
<path d="M143.608 53.3448C147.993 53.3448 151.999 51.5602 153.57 48.8562V52.804H159.146V35.1744C159.146 28.6849 155.031 25.2239 147.885 25.2239C141.063 25.2239 136.191 28.5227 135.216 34.3632H140.955C141.605 31.497 144.095 29.9288 147.722 29.9288C151.35 29.9288 153.407 31.5511 153.407 33.8224C153.407 36.4723 150.646 36.8508 148.968 37.0671L144.149 37.662C140.035 38.0946 134.404 39.8792 134.404 45.6115C134.404 50.3704 138.085 53.3448 143.608 53.3448ZM145.394 48.6399C141.875 48.6399 140.089 47.3961 140.089 45.2871C140.089 43.2862 141.659 41.8801 144.691 41.5556L148.805 41.0689C151.133 40.8526 152.541 40.3659 153.57 39.5547V41.0689C153.57 45.936 150.7 48.6399 145.394 48.6399Z" fill="#001878"/>
<path d="M172.114 52.804V37.8783C172.114 33.4979 175.146 30.0369 179.91 30.0369C183.808 30.0369 186.028 32.3623 186.028 36.5263V52.804H191.712V35.7152C191.712 29.6043 187.868 25.2239 181.426 25.2239C177.582 25.2239 174.009 26.8463 172.114 29.9288V25.7647H166.429V52.804H172.114Z" fill="#001878"/>
<path d="M205 52.804V37.8783C205 33.4979 208.031 30.0369 212.796 30.0369C216.694 30.0369 218.914 32.3623 218.914 36.5263V52.804H224.598V35.7152C224.598 29.6043 220.754 25.2239 214.312 25.2239C210.468 25.2239 206.894 26.8463 205 29.9288V25.7647H199.315V52.804H205Z" fill="#001878"/>
<path d="M246.061 53.3448C254.615 53.3448 260.841 49.1266 260.841 42.2046C260.841 34.3632 252.99 32.5245 246.494 30.7399C241.729 29.442 237.561 28.1982 237.561 24.4668C237.561 21.3303 240.268 19.3294 245.194 19.3294C250.987 19.3294 254.452 22.0874 254.777 27.0085H260.841C260.57 19.4916 254.506 14.4623 245.465 14.4623C237.398 14.4623 231.443 18.4641 231.443 25.1158C231.443 32.4704 238.697 34.3091 245.086 35.9855C250.229 37.3916 254.777 38.5813 254.777 42.8535C254.777 46.3686 251.799 48.4777 246.494 48.4777C240.43 48.4777 236.803 45.7197 236.478 40.7985H230.36C230.576 48.3155 236.803 53.3448 246.061 53.3448Z" fill="#001878"/>
<path d="M274.887 53.3448C279.272 53.3448 283.278 51.5602 284.848 48.8562V52.804H290.425V35.1744C290.425 28.6849 286.31 25.2239 279.164 25.2239C272.342 25.2239 267.469 28.5227 266.495 34.3632H272.234C272.884 31.497 275.374 29.9288 279.001 29.9288C282.629 29.9288 284.686 31.5511 284.686 33.8224C284.686 36.4723 281.925 36.8508 280.247 37.0671L275.428 37.662C271.313 38.0946 265.683 39.8792 265.683 45.6115C265.683 50.3704 269.364 53.3448 274.887 53.3448ZM276.673 48.6399C273.154 48.6399 271.368 47.3961 271.368 45.2871C271.368 43.2862 272.938 41.8801 275.969 41.5556L280.084 41.0689C282.412 40.8526 283.82 40.3659 284.848 39.5547V41.0689C284.848 45.936 281.979 48.6399 276.673 48.6399Z" fill="#001878"/>
<path d="M317 52.804V47.8288H305.847V30.5236H316.458V25.7647H305.847V17.1121H300.162V25.7647H293.936V30.5236H300.162V48.3155C300.162 51.2357 301.732 52.804 304.71 52.804H317Z" fill="#001878"/>
</svg>
