<svg width="243" height="72" viewBox="0 0 243 72" fill="none" xmlns="http://www.w3.org/2000/svg">
<rect x="35.4287" y="35.4277" width="20.5714" height="9.14286" rx="4.57143" fill="white"/>
<rect x="28.5713" y="46.8574" width="20.5714" height="9.14286" rx="4.57143" fill="white"/>
<path d="M40 24H24V40C24 42.5247 26.0467 44.5714 28.5714 44.5714C31.0962 44.5714 33.1429 42.5247 33.1429 40V33.1429H40C42.5247 33.1429 44.5714 31.0962 44.5714 28.5714C44.5714 26.0467 42.5247 24 40 24Z" fill="white"/>
<path d="M67.9509 49.1296V42.3354H73.6965C77.3808 42.3354 79.7254 40.1737 79.7254 36.6994C79.7254 33.3538 77.5869 31.1148 73.748 31.1148H65.1426V49.1296H67.9509ZM67.9509 33.5854H73.3615C75.5773 33.5854 76.814 34.7435 76.814 36.7766C76.814 38.7067 75.5773 39.942 73.3615 39.942H67.9509V33.5854Z" fill="white"/>
<path d="M85.0237 49.1296V30.8574H82.3184V49.1296H85.0237Z" fill="white"/>
<path d="M92.3414 49.387C94.4284 49.387 96.335 48.5377 97.0821 47.2509V49.1296H99.7359V40.7398C99.7359 37.6516 97.7778 36.0045 94.3769 36.0045C91.1305 36.0045 88.8117 37.5744 88.3479 40.3538H91.079C91.3881 38.9898 92.5733 38.2435 94.2996 38.2435C96.0258 38.2435 97.0048 39.0156 97.0048 40.0965C97.0048 41.3575 95.6908 41.5376 94.8921 41.6406L92.5991 41.9237C90.641 42.1296 87.9614 42.9788 87.9614 45.7068C87.9614 47.9715 89.7134 49.387 92.3414 49.387ZM93.1917 47.148C91.517 47.148 90.6667 46.5561 90.6667 45.5524C90.6667 44.6002 91.4139 43.931 92.8567 43.7766L94.8149 43.545C95.9227 43.4421 96.5926 43.2104 97.0821 42.8244V43.545C97.0821 45.8612 95.7166 47.148 93.1917 47.148Z" fill="white"/>
<path d="M105.907 49.1296V42.0266C105.907 39.942 107.35 38.295 109.617 38.295C111.472 38.295 112.529 39.4016 112.529 41.3832V49.1296H115.234V40.9972C115.234 38.0891 113.405 36.0045 110.339 36.0045C108.509 36.0045 106.809 36.7766 105.907 38.2435V36.2619H103.202V49.1296H105.907Z" fill="white"/>
<path d="M121.557 49.1296V42.0266C121.557 39.942 123 38.295 125.267 38.295C127.122 38.295 128.179 39.4016 128.179 41.3832V49.1296H130.884V40.9972C130.884 38.0891 129.055 36.0045 125.989 36.0045C124.159 36.0045 122.459 36.7766 121.557 38.2435V36.2619H118.852V49.1296H121.557Z" fill="white"/>
<path d="M141.098 49.387C145.169 49.387 148.131 47.3796 148.131 44.0854C148.131 40.3538 144.396 39.4788 141.304 38.6295C139.037 38.0119 137.053 37.42 137.053 35.6442C137.053 34.1516 138.341 33.1993 140.685 33.1993C143.442 33.1993 145.091 34.5119 145.246 36.8538H148.131C148.003 33.2766 145.117 30.8832 140.814 30.8832C136.975 30.8832 134.141 32.7876 134.141 35.953C134.141 39.4531 137.594 40.3281 140.634 41.1259C143.082 41.795 145.246 42.3612 145.246 44.3943C145.246 46.0671 143.829 47.0708 141.304 47.0708C138.418 47.0708 136.692 45.7583 136.537 43.4163H133.626C133.729 46.9936 136.692 49.387 141.098 49.387Z" fill="white"/>
<path d="M154.816 49.387C156.903 49.387 158.809 48.5377 159.556 47.2509V49.1296H162.21V40.7398C162.21 37.6516 160.252 36.0045 156.851 36.0045C153.605 36.0045 151.286 37.5744 150.822 40.3538H153.553C153.862 38.9898 155.048 38.2435 156.774 38.2435C158.5 38.2435 159.479 39.0156 159.479 40.0965C159.479 41.3575 158.165 41.5376 157.366 41.6406L155.073 41.9237C153.115 42.1296 150.436 42.9788 150.436 45.7068C150.436 47.9715 152.188 49.387 154.816 49.387ZM155.666 47.148C153.991 47.148 153.141 46.5561 153.141 45.5524C153.141 44.6002 153.888 43.931 155.331 43.7766L157.289 43.545C158.397 43.4421 159.067 43.2104 159.556 42.8244V43.545C159.556 45.8612 158.191 47.148 155.666 47.148Z" fill="white"/>
<path d="M174.857 49.1296V46.7619H169.549V38.5266H174.599V36.2619H169.549V32.1442H166.844V36.2619H163.881V38.5266H166.844V46.9936C166.844 48.3833 167.591 49.1296 169.008 49.1296H174.857Z" fill="white"/>
</svg>
