<?xml version="1.0" standalone="no"?>
<!DOCTYPE svg PUBLIC "-//W3C//DTD SVG 20010904//EN"
 "http://www.w3.org/TR/2001/REC-SVG-20010904/DTD/svg10.dtd">
<svg version="1.0" xmlns="http://www.w3.org/2000/svg"
 width="301.000000pt" height="301.000000pt" viewBox="0 0 301.000000 301.000000"
 preserveAspectRatio="xMidYMid meet">
<metadata>
Created by potrace 1.14, written by Peter Selinger 2001-2017
</metadata>
<g transform="translate(0.000000,301.000000) scale(0.100000,-0.100000)"
fill="#000000" stroke="none">
<path d="M0 2233 c1 -828 0 -826 49 -922 30 -58 102 -134 159 -167 216 -127
487 -48 603 175 41 80 46 128 46 484 0 185 3 340 6 344 4 3 158 6 344 6 186 0
358 5 383 10 186 37 327 204 336 399 9 203 -122 382 -320 434 -41 11 -206 14
-829 14 l-777 0 0 -777z"/>
<path d="M1412 1929 c-157 -30 -295 -168 -331 -329 -23 -103 2 -232 62 -327
37 -58 134 -136 204 -165 l58 -23 605 -2 c389 -2 621 1 650 8 198 45 338 218
338 418 0 115 -37 209 -116 293 -54 58 -106 90 -188 117 -56 19 -89 20 -649
19 -324 0 -609 -4 -633 -9z"/>
<path d="M772 859 c-67 -13 -145 -54 -204 -108 -249 -227 -144 -642 184 -726
50 -14 147 -15 666 -13 l607 3 58 24 c115 46 216 154 252 267 66 212 -30 426
-234 523 l-76 36 -605 1 c-333 0 -624 -3 -648 -7z"/>
</g>
</svg>
