<svg width="1056" height="224" viewBox="0 0 1056 224" fill="none" xmlns="http://www.w3.org/2000/svg">
<rect x="80" y="80" width="144" height="64" rx="32" fill="#F57500"/>
<rect x="32" y="160" width="144" height="64" rx="32" fill="#F57500"/>
<path d="M112 0H0V112C0 129.673 14.3269 144 32 144C49.6731 144 64 129.673 64 112V64H112C129.673 64 144 49.6731 144 32C144 14.3269 129.673 0 112 0Z" fill="#001878"/>
<path d="M307.658 175.905V128.346H347.877C373.668 128.346 390.08 113.214 390.08 88.8936C390.08 65.4744 375.11 49.8015 348.238 49.8015H288V175.905H307.658ZM307.658 67.0957H345.533C361.043 67.0957 369.7 75.2024 369.7 89.4341C369.7 102.945 361.043 111.592 345.533 111.592H307.658V67.0957Z" fill="#001878"/>
<path d="M427.168 175.905V48H408.231V175.905H427.168Z" fill="#001878"/>
<path d="M478.392 177.707C493.001 177.707 506.347 171.762 511.577 162.754V175.905H530.153V117.177C530.153 95.5591 516.446 84.0296 492.64 84.0296C469.915 84.0296 453.684 95.0187 450.437 114.475H469.555C471.719 104.927 480.015 99.7025 492.099 99.7025C504.182 99.7025 511.036 105.107 511.036 112.673C511.036 121.5 501.838 122.761 496.247 123.482L480.195 125.464C466.489 126.905 447.732 132.85 447.732 151.945C447.732 167.799 459.996 177.707 478.392 177.707ZM484.344 162.034C472.621 162.034 466.669 157.89 466.669 150.865C466.669 144.199 471.899 139.515 481.999 138.434L495.706 136.813C503.461 136.092 508.15 134.471 511.577 131.769V136.813C511.577 153.026 502.018 162.034 484.344 162.034Z" fill="#001878"/>
<path d="M573.352 175.905V126.184C573.352 111.592 583.452 100.063 599.323 100.063C612.308 100.063 619.703 107.809 619.703 121.681V175.905H638.64V118.978C638.64 98.6216 625.835 84.0296 604.373 84.0296C591.568 84.0296 579.664 89.4341 573.352 99.7025V85.8311H554.415V175.905H573.352Z" fill="#001878"/>
<path d="M682.902 175.905V126.184C682.902 111.592 693.002 100.063 708.873 100.063C721.858 100.063 729.253 107.809 729.253 121.681V175.905H748.19V118.978C748.19 98.6216 735.385 84.0296 713.923 84.0296C701.118 84.0296 689.214 89.4341 682.902 99.7025V85.8311H663.965V175.905H682.902Z" fill="#001878"/>
<path d="M819.686 177.707C848.181 177.707 868.922 163.655 868.922 140.596C868.922 114.475 842.771 108.35 821.129 102.405C805.257 98.0812 791.37 93.9378 791.37 81.5076C791.37 71.059 800.388 64.3935 816.8 64.3935C836.098 64.3935 847.64 73.581 848.722 89.9745H868.922C868.02 64.9339 847.821 48.1801 817.702 48.1801C790.829 48.1801 770.99 61.5111 770.99 83.6693C770.99 108.169 795.158 114.295 816.439 119.879C833.573 124.563 848.722 128.526 848.722 142.758C848.722 154.468 838.803 161.493 821.129 161.493C800.929 161.493 788.845 152.306 787.763 135.912H767.383C768.105 160.953 788.845 177.707 819.686 177.707Z" fill="#001878"/>
<path d="M915.712 177.707C930.321 177.707 943.667 171.762 948.897 162.754V175.905H967.474V117.177C967.474 95.5591 953.767 84.0296 929.96 84.0296C907.236 84.0296 891.004 95.0187 887.758 114.475H906.875C909.039 104.927 917.335 99.7025 929.419 99.7025C941.503 99.7025 948.356 105.107 948.356 112.673C948.356 121.5 939.158 122.761 933.567 123.482L917.516 125.464C903.809 126.905 885.052 132.85 885.052 151.945C885.052 167.799 897.316 177.707 915.712 177.707ZM921.664 162.034C909.941 162.034 903.989 157.89 903.989 150.865C903.989 144.199 909.22 139.515 919.319 138.434L933.026 136.813C940.781 136.092 945.47 134.471 948.897 131.769V136.813C948.897 153.026 939.338 162.034 921.664 162.034Z" fill="#001878"/>
<path d="M1056 175.905V159.332H1018.85V101.684H1054.2V85.8311H1018.85V57.0074H999.91V85.8311H979.17V101.684H999.91V160.953C999.91 170.681 1005.14 175.905 1015.06 175.905H1056Z" fill="#001878"/>
</svg>
